<svg width="244" height="38" viewBox="0 0 244 38" fill="none" xmlns="http://www.w3.org/2000/svg">
<path d="M12.768 37.488C11.008 37.488 9.328 37.216 7.728 36.672C6.16 36.096 4.736 35.328 3.456 34.368L2.64 37.296H0.768L0 26.16L2.064 25.824C2.448 27.2 2.96 28.464 3.6 29.616C4.272 30.736 5.024 31.696 5.856 32.496C6.72 33.296 7.664 33.92 8.688 34.368C9.744 34.784 10.864 34.992 12.048 34.992C13.296 34.992 14.352 34.784 15.216 34.368C16.112 33.92 16.784 33.312 17.232 32.544C17.712 31.744 17.952 30.816 17.952 29.76C17.952 28.544 17.68 27.52 17.136 26.688C16.592 25.856 15.76 25.136 14.64 24.528C13.52 23.92 12.112 23.36 10.416 22.848C9.008 22.4 7.696 21.888 6.48 21.312C5.296 20.704 4.256 20 3.36 19.2C2.464 18.368 1.76 17.392 1.248 16.272C0.736 15.12 0.48 13.76 0.48 12.192C0.48 11.04 0.656 9.952 1.008 8.928C1.36 7.872 1.872 6.912 2.544 6.048C3.216 5.184 4.032 4.432 4.992 3.792C5.952 3.12 7.04 2.608 8.256 2.256C9.472 1.904 10.8 1.728 12.24 1.728C13.872 1.728 15.328 1.968 16.608 2.448C17.92 2.928 19.088 3.568 20.112 4.368L20.64 1.728H22.368L23.664 12.288L21.552 12.672C20.944 10.688 20.192 9.072 19.296 7.824C18.4 6.544 17.392 5.6 16.272 4.992C15.184 4.384 13.984 4.08 12.672 4.08C11.008 4.08 9.68 4.528 8.688 5.424C7.728 6.32 7.248 7.536 7.248 9.072C7.248 10.32 7.536 11.344 8.112 12.144C8.688 12.912 9.504 13.568 10.56 14.112C11.648 14.656 12.928 15.184 14.4 15.696C15.936 16.176 17.344 16.736 18.624 17.376C19.936 17.984 21.056 18.704 21.984 19.536C22.944 20.336 23.68 21.312 24.192 22.464C24.736 23.584 25.008 24.912 25.008 26.448C25.008 28.176 24.656 29.728 23.952 31.104C23.28 32.48 22.352 33.648 21.168 34.608C20.016 35.568 18.704 36.288 17.232 36.768C15.792 37.248 14.304 37.488 12.768 37.488Z" fill="#211F24"/>
<path d="M28.5847 36.816V34.992L30.4568 34.704C30.9368 34.64 31.2568 34.464 31.4167 34.176C31.5767 33.888 31.6567 33.328 31.6567 32.496V5.424C31.6567 4.368 31.5448 3.648 31.3207 3.264C31.1287 2.88 30.6647 2.64 29.9287 2.544L28.1047 2.352L28.2967 0.432L38.7607 0L39.2887 0.383998V15.936L39.3368 16.032C40.0407 14.592 41.0648 13.472 42.4087 12.672C43.7847 11.84 45.3848 11.424 47.2088 11.424C49.0008 11.424 50.4888 11.76 51.6728 12.432C52.8568 13.104 53.7368 14.08 54.3128 15.36C54.9208 16.608 55.2248 18.144 55.2248 19.968V32.784C55.2248 33.488 55.3207 33.984 55.5127 34.272C55.7048 34.528 56.1048 34.688 56.7128 34.752L58.4408 34.992V36.816H44.8088V35.04L46.3447 34.8C46.8568 34.736 47.1927 34.576 47.3527 34.32C47.5448 34.032 47.6408 33.504 47.6408 32.736V20.496C47.6408 19.088 47.5288 18 47.3048 17.232C47.0808 16.432 46.7128 15.872 46.2008 15.552C45.7208 15.2 45.0327 15.024 44.1367 15.024C43.2407 15.024 42.4088 15.264 41.6408 15.744C40.9048 16.192 40.3288 16.848 39.9128 17.712C39.4967 18.576 39.2887 19.648 39.2887 20.928V32.64C39.2887 33.376 39.3528 33.888 39.4808 34.176C39.6408 34.464 39.9447 34.656 40.3927 34.752L42.1688 35.04V36.816H28.5847Z" fill="#211F24"/>
<path d="M73.7948 37.488C71.1388 37.488 68.8507 37.008 66.9307 36.048C65.0107 35.056 63.5228 33.632 62.4668 31.776C61.4108 29.888 60.8828 27.616 60.8828 24.96C60.8828 22.016 61.4428 19.536 62.5628 17.52C63.7148 15.504 65.3148 13.984 67.3627 12.96C69.4427 11.936 71.8748 11.424 74.6588 11.424C77.1868 11.424 79.3948 11.888 81.2828 12.816C83.2028 13.744 84.6908 15.136 85.7467 16.992C86.8027 18.816 87.3307 21.104 87.3307 23.856C87.3307 26.704 86.7868 29.152 85.6988 31.2C84.6108 33.216 83.0428 34.768 80.9948 35.856C78.9788 36.944 76.5788 37.488 73.7948 37.488ZM74.5147 35.136C75.6348 35.136 76.5308 34.8 77.2028 34.128C77.9068 33.456 78.4187 32.368 78.7387 30.864C79.0587 29.36 79.2188 27.36 79.2188 24.864C79.2188 22.784 79.0907 21.024 78.8347 19.584C78.6107 18.144 78.2587 17.008 77.7787 16.176C77.3307 15.312 76.7708 14.688 76.0987 14.304C75.4587 13.92 74.7228 13.728 73.8908 13.728C72.8348 13.728 71.9388 14.048 71.2028 14.688C70.4668 15.296 69.9068 16.304 69.5228 17.712C69.1387 19.12 68.9467 21.04 68.9467 23.472C68.9467 26.288 69.1708 28.56 69.6188 30.288C70.0667 31.984 70.6908 33.216 71.4908 33.984C72.3228 34.752 73.3307 35.136 74.5147 35.136Z" fill="#211F24"/>
<path d="M98.6745 36.816L92.1465 16.992C91.9225 16.384 91.7145 15.92 91.5225 15.6C91.3625 15.248 91.1545 14.992 90.8985 14.832C90.6745 14.64 90.3225 14.48 89.8425 14.352L88.4505 14.016L88.6905 12.096H102.611V13.968L100.69 14.208C100.115 14.272 99.7465 14.464 99.5865 14.784C99.4585 15.104 99.5385 15.744 99.8265 16.704L104.05 30.672H104.243L109.235 12.096H114.994L120.755 30.624H120.947L124.786 16.992C125.042 16.064 125.075 15.408 124.882 15.024C124.69 14.64 124.258 14.384 123.587 14.256L121.811 13.92L122.099 12.096H131.266V13.968L129.635 14.256C128.995 14.352 128.482 14.592 128.098 14.976C127.746 15.36 127.41 16.08 127.09 17.136L121.331 36.816H115.379L109.954 19.344H109.811L105.059 36.816H98.6745Z" fill="#211F24"/>
<path d="M149.922 37.488C146.434 37.488 143.426 36.784 140.898 35.376C138.402 33.968 136.482 31.92 135.138 29.232C133.826 26.544 133.17 23.296 133.17 19.488C133.17 16.864 133.57 14.48 134.37 12.336C135.17 10.16 136.29 8.288 137.73 6.72C139.202 5.12 140.93 3.888 142.914 3.024C144.898 2.16 147.074 1.728 149.442 1.728C151.362 1.728 153.01 2.048 154.386 2.688C155.762 3.328 156.946 4.08 157.938 4.944L158.514 1.68H160.338L162.258 13.344L160.05 13.824C159.282 11.616 158.402 9.808 157.41 8.4C156.45 6.992 155.346 5.952 154.098 5.28C152.882 4.576 151.522 4.224 150.018 4.224C148.034 4.224 146.418 4.816 145.17 6C143.954 7.184 143.058 8.88 142.482 11.088C141.906 13.296 141.618 15.936 141.618 19.008C141.618 21.536 141.858 23.744 142.338 25.632C142.85 27.52 143.538 29.104 144.402 30.384C145.298 31.632 146.354 32.576 147.57 33.216C148.818 33.824 150.162 34.128 151.602 34.128C152.978 34.128 154.258 33.92 155.442 33.504C156.658 33.088 157.762 32.48 158.754 31.68C159.778 30.848 160.674 29.872 161.442 28.752L162.93 30.336C162.386 31.2 161.714 32.064 160.914 32.928C160.114 33.76 159.186 34.528 158.13 35.232C157.074 35.936 155.858 36.48 154.482 36.864C153.138 37.28 151.618 37.488 149.922 37.488Z" fill="#703CD2"/>
<path d="M173.739 37.488C171.531 37.488 169.787 36.912 168.507 35.76C167.259 34.608 166.635 33.008 166.635 30.96C166.635 29.168 167.083 27.744 167.979 26.688C168.907 25.632 170.379 24.848 172.395 24.336C174.443 23.824 177.131 23.488 180.459 23.328V18.48C180.459 17.264 180.315 16.272 180.027 15.504C179.771 14.736 179.339 14.176 178.731 13.824C178.123 13.472 177.307 13.296 176.283 13.296C175.451 13.296 174.587 13.44 173.691 13.728C172.827 13.984 172.155 14.336 171.675 14.784C172.251 15.488 172.683 16.096 172.971 16.608C173.291 17.088 173.499 17.488 173.595 17.808C173.723 18.128 173.787 18.416 173.787 18.672C173.787 19.376 173.483 19.968 172.875 20.448C172.299 20.928 171.467 21.168 170.379 21.168C169.227 21.168 168.363 20.896 167.787 20.352C167.243 19.808 166.971 19.088 166.971 18.192C166.971 17.04 167.403 15.952 168.267 14.928C169.163 13.872 170.411 13.024 172.011 12.384C173.611 11.744 175.483 11.424 177.627 11.424C179.899 11.424 181.803 11.744 183.339 12.384C184.907 12.992 186.091 13.984 186.891 15.36C187.691 16.736 188.091 18.528 188.091 20.736V31.824C188.091 32.624 188.235 33.2 188.523 33.552C188.843 33.904 189.291 34.08 189.867 34.08C190.219 34.08 190.555 34.048 190.875 33.984C191.195 33.888 191.531 33.776 191.883 33.648L192.315 35.088C191.547 35.888 190.635 36.48 189.579 36.864C188.555 37.28 187.531 37.488 186.507 37.488C184.875 37.488 183.611 37.104 182.715 36.336C181.851 35.568 181.291 34.512 181.035 33.168C180.587 34.096 180.027 34.88 179.355 35.52C178.715 36.16 177.931 36.64 177.003 36.96C176.107 37.312 175.019 37.488 173.739 37.488ZM177.003 34.128C177.739 34.128 178.347 33.968 178.827 33.648C179.339 33.328 179.739 32.864 180.027 32.256C180.315 31.648 180.459 30.96 180.459 30.192V25.152C178.955 25.184 177.739 25.36 176.811 25.68C175.883 26 175.211 26.528 174.795 27.264C174.379 27.968 174.171 28.928 174.171 30.144C174.171 31.456 174.411 32.448 174.891 33.12C175.371 33.792 176.075 34.128 177.003 34.128Z" fill="#703CD2"/>
<path d="M195.064 37.536L194.296 28.512L196.456 28.368C196.968 30.032 197.576 31.376 198.28 32.4C199.016 33.392 199.864 34.112 200.824 34.56C201.784 35.008 202.856 35.232 204.04 35.232C205.448 35.232 206.552 34.896 207.352 34.224C208.152 33.552 208.552 32.592 208.552 31.344C208.552 30.512 208.328 29.872 207.88 29.424C207.432 28.944 206.776 28.544 205.912 28.224C205.08 27.904 204.072 27.6 202.888 27.312C201.736 26.992 200.648 26.624 199.624 26.208C198.6 25.792 197.704 25.296 196.936 24.72C196.2 24.144 195.624 23.424 195.208 22.56C194.792 21.664 194.584 20.576 194.584 19.296C194.584 17.664 194.952 16.272 195.688 15.12C196.456 13.936 197.544 13.024 198.952 12.384C200.36 11.744 202.008 11.424 203.896 11.424C205.176 11.424 206.328 11.584 207.352 11.904C208.408 12.224 209.32 12.64 210.088 13.152L210.616 11.424H212.344L212.968 19.44L210.808 19.296C210.168 17.28 209.304 15.792 208.216 14.832C207.128 13.872 205.784 13.392 204.184 13.392C202.904 13.392 201.896 13.68 201.16 14.256C200.456 14.8 200.104 15.584 200.104 16.608C200.104 17.408 200.328 18.048 200.776 18.528C201.224 19.008 201.88 19.408 202.744 19.728C203.608 20.048 204.616 20.384 205.768 20.736C206.984 21.088 208.104 21.472 209.128 21.888C210.152 22.304 211.032 22.816 211.768 23.424C212.536 24 213.112 24.736 213.496 25.632C213.912 26.496 214.12 27.568 214.12 28.848C214.12 30.64 213.704 32.192 212.872 33.504C212.04 34.784 210.872 35.776 209.368 36.48C207.896 37.152 206.184 37.488 204.232 37.488C202.888 37.488 201.624 37.312 200.44 36.96C199.256 36.64 198.232 36.176 197.368 35.568L196.792 37.536H195.064Z" fill="#703CD2"/>
<path d="M224.598 37.488C222.39 37.488 220.646 36.912 219.366 35.76C218.118 34.608 217.494 33.008 217.494 30.96C217.494 29.168 217.942 27.744 218.838 26.688C219.766 25.632 221.238 24.848 223.254 24.336C225.302 23.824 227.99 23.488 231.318 23.328V18.48C231.318 17.264 231.174 16.272 230.886 15.504C230.63 14.736 230.198 14.176 229.59 13.824C228.982 13.472 228.166 13.296 227.142 13.296C226.31 13.296 225.446 13.44 224.55 13.728C223.686 13.984 223.014 14.336 222.534 14.784C223.11 15.488 223.542 16.096 223.83 16.608C224.15 17.088 224.358 17.488 224.454 17.808C224.582 18.128 224.646 18.416 224.646 18.672C224.646 19.376 224.342 19.968 223.734 20.448C223.158 20.928 222.326 21.168 221.238 21.168C220.086 21.168 219.222 20.896 218.646 20.352C218.102 19.808 217.83 19.088 217.83 18.192C217.83 17.04 218.262 15.952 219.126 14.928C220.022 13.872 221.27 13.024 222.87 12.384C224.47 11.744 226.342 11.424 228.486 11.424C230.758 11.424 232.662 11.744 234.198 12.384C235.766 12.992 236.95 13.984 237.75 15.36C238.55 16.736 238.95 18.528 238.95 20.736V31.824C238.95 32.624 239.094 33.2 239.382 33.552C239.702 33.904 240.15 34.08 240.726 34.08C241.078 34.08 241.414 34.048 241.734 33.984C242.054 33.888 242.39 33.776 242.742 33.648L243.174 35.088C242.406 35.888 241.494 36.48 240.438 36.864C239.414 37.28 238.39 37.488 237.366 37.488C235.734 37.488 234.47 37.104 233.574 36.336C232.71 35.568 232.15 34.512 231.894 33.168C231.446 34.096 230.886 34.88 230.214 35.52C229.574 36.16 228.79 36.64 227.862 36.96C226.966 37.312 225.878 37.488 224.598 37.488ZM227.862 34.128C228.598 34.128 229.206 33.968 229.686 33.648C230.198 33.328 230.598 32.864 230.886 32.256C231.174 31.648 231.318 30.96 231.318 30.192V25.152C229.814 25.184 228.598 25.36 227.67 25.68C226.742 26 226.07 26.528 225.654 27.264C225.238 27.968 225.03 28.928 225.03 30.144C225.03 31.456 225.27 32.448 225.75 33.12C226.23 33.792 226.934 34.128 227.862 34.128Z" fill="#703CD2"/>
</svg>
